# xmcd
#
# Track frame offsets:
#	150
#	15483
#	32311
#	52041
#	68589
#	87872
#	106260
#	132267
#	147733
#	167472
#	186743
#	201986
#	220946
#
# Disc length: 3210 seconds
#
# Revision: 4
# Processed by: cddbd v1.4PL0 Copyright (c) Steve Scherf et al.
# Submitted via: MusicWizard 6.0.2
#
DISCID=b90c880d
DTITLE=Randy Crawford - Play Mode
DYEAR=2002
DGENRE=Blues
TTITLE0=Wild Is The Wind
TTITLE1=Merry Go Round
TTITLE2=Free The Child
TTITLE3=Permanent
TTITLE4=Sweetest Thing
TTITLE5=Fire And Rain
TTITLE6=When I Get Over You
TTITLE7=Alfie
TTITLE8=When The Evening Comes
TTITLE9=All I Do
TTITLE10=When Will I Be Free Of Love's Taboo
TTITLE11=Tell It To Your Heart
TTITLE12=I Get A Little Burned
EXTD=YEAR: 2002  ID3G:   0
EXTT0=
EXTT1=
EXTT2=
EXTT3=
EXTT4=
EXTT5=
EXTT6=
EXTT7=
EXTT8=
EXTT9=
EXTT10=
EXTT11=
EXTT12=
PLAYORDER=
